<svg xmlns="http://www.w3.org/2000/svg" version="1.1" xmlnsXlink="http://www.w3.org/1999/xlink" xmlns:svgjs="http://svgjs.dev/svgjs" width="1000" height="252" viewBox="0 0 1000 252"><g transform="matrix(1,0,0,1,-0.6060311415080264,-0.44330256458292183)"><svg viewBox="0 0 396 100" data-background-color="#ffffff" preserveAspectRatio="xMidYMid meet" height="252" width="1000" xmlns="http://www.w3.org/2000/svg" xmlnsXlink="http://www.w3.org/1999/xlink"><g id="tight-bounds" transform="matrix(1,0,0,1,0.2399883320371714,0.1759137161043327)"><svg viewBox="0 0 395.52 99.64817256779133" height="99.64817256779133" width="395.52"><g><svg viewBox="0 0 604.8172408075336 152.37897649667406" height="99.64817256779133" width="395.52"><g><rect width="6.309414258592639" height="152.37897649667406" x="186.47103529608063" y="0" fill="#802c6e" opacity="1" stroke-width="0" stroke="transparent" fill-opacity="1" class="rect-o-0" data-fill-palette-color="primary" rx="1%" id="o-0" data-palette-color="#802c6e"></rect></g><g transform="matrix(1,0,0,1,209.2972408075336,0.37905218033998267)"><svg viewBox="0 0 395.52 151.6208721359941" height="151.6208721359941" width="395.52"><g id="textblocktransform"><svg viewBox="0 0 395.52 151.6208721359941" height="151.6208721359941" width="395.52" id="textblock"><g><svg viewBox="0 0 395.52 151.6208721359941" height="151.6208721359941" width="395.52"><g transform="matrix(1,0,0,1,0,0)"><svg width="395.52" viewBox="3 -35.400001525878906 202.94998168945312 74.30000305175781" height="151.6208721359941" data-palette-color="#802c6e"><svg></svg><svg></svg><g class="undefined-text-0" data-fill-palette-color="primary" id="text-0"><path xmlns="http://www.w3.org/2000/svg" d="M11 0h-7v-27.35l-1-5.05 1-3h12c2.433 0 4.627 0.377 6.58 1.13 1.947 0.747 3.497 2.01 4.65 3.79 1.147 1.787 1.72 4.247 1.72 7.38v0c0 3.133-0.617 5.607-1.85 7.42-1.233 1.82-2.94 3.113-5.12 3.88-2.187 0.767-4.68 1.15-7.48 1.15v0h-3.5v2.6l0.5 5zM10.5-28.9l0.5 11.9h4.9c2.2 0 3.7-0.577 4.5-1.73 0.8-1.147 1.2-2.603 1.2-4.37v0c0-1.867-0.423-3.3-1.27-4.3-0.853-1-2.397-1.5-4.63-1.5v0zM45.9 0.5v0c-3.433 0-6.123-0.567-8.07-1.7-1.953-1.133-3.337-2.81-4.15-5.03-0.82-2.213-1.23-4.92-1.23-8.12v0-13l0.05-5.05-0.05-3h7.1v21.55c0 2.333 0.467 4.223 1.4 5.67 0.933 1.453 2.583 2.18 4.95 2.18v0c2.367 0 4.043-0.677 5.03-2.03 0.98-1.347 1.47-3.287 1.47-5.82v0-21.55h6.95v21.05c0 3.133-0.39 5.807-1.17 8.02-0.787 2.22-2.153 3.913-4.1 5.08-1.953 1.167-4.68 1.75-8.18 1.75zM72.85 0h-7v-27.35l-1-5.05 1-3h12c2.433 0 4.627 0.377 6.58 1.13 1.947 0.747 3.497 2.01 4.65 3.79 1.147 1.787 1.72 4.247 1.72 7.38v0c0 2.967-0.557 5.333-1.67 7.1-1.12 1.767-2.663 3.083-4.63 3.95v0l1.45 1.3 4.45 5.2 2.85 2.55v3h-9.25l-7-10.65h-4.15v2.6l0.5 5zM72.35-28.9l0.5 11.9h4.9c2.2 0 3.7-0.577 4.5-1.73 0.8-1.147 1.2-2.603 1.2-4.37v0c0-1.867-0.423-3.3-1.27-4.3-0.853-1-2.397-1.5-4.63-1.5v0zM104.75 0h-7v-27.35l-1-5.05 1-3h12c2.433 0 4.627 0.377 6.58 1.13 1.947 0.747 3.497 2.01 4.65 3.79 1.147 1.787 1.72 4.247 1.72 7.38v0c0 3.133-0.617 5.607-1.85 7.42-1.233 1.82-2.94 3.113-5.12 3.88-2.187 0.767-4.68 1.15-7.48 1.15v0h-3.5v2.6l0.5 5zM104.25-28.9l0.5 11.9h4.9c2.2 0 3.7-0.577 4.5-1.73 0.8-1.147 1.2-2.603 1.2-4.37v0c0-1.867-0.423-3.3-1.27-4.3-0.853-1-2.397-1.5-4.63-1.5v0zM150.65 0h-22.95l-1-3 1-5v-27.4h7v20.55l-0.5 8.35h1l10.95-0.5 3.55-0.5 3.4 4.3zM181.4 0h-23.9l-1-3 1-5v-27.4h22.7l2.5 1.5-2.8 5.5-5-0.5h-10.5v7.75h13.5v6.25h-4.9l-8.6-0.5v8.9h16l3.95 3.3z" fill="#802c6e" fill-rule="nonzero" stroke="none" stroke-width="1" stroke-linecap="butt" stroke-linejoin="miter" stroke-miterlimit="10" stroke-dasharray="" stroke-dashoffset="0" font-family="none" font-weight="none" font-size="none" text-anchor="none" style="mix-blend-mode: normal" data-fill-palette-color="primary" opacity="1"></path><path xmlns="http://www.w3.org/2000/svg" d="M26.95 38.9h-22.95l-1-3 1-5v-27.4h7v20.55l-0.5 8.35h1l10.95-0.5 3.55-0.5 3.4 4.3zM40.3 38.9h-7v-27.4l-0.5-5 0.5-3h7zM63.8 38.9h-16.5v-27.4l-1-5 1-3h13c2.533 0 4.727 0.293 6.58 0.88 1.847 0.58 3.287 1.52 4.32 2.82 1.033 1.3 1.55 3.033 1.55 5.2v0c0 1.333-0.223 2.59-0.67 3.77-0.453 1.187-1.213 2.18-2.28 2.98v0c2.1 0.733 3.7 1.833 4.8 3.3 1.1 1.467 1.65 3.417 1.65 5.85v0c0 3.7-1.033 6.39-3.1 8.07-2.067 1.687-5.183 2.53-9.35 2.53zM54.3 10v7.75h6.9c2.8 0 4.2-1.233 4.2-3.7v0c0-1.233-0.283-2.217-0.85-2.95-0.567-0.733-1.683-1.1-3.35-1.1v0zM54.3 23.7v8.7h9c1.767 0 3.057-0.4 3.87-1.2 0.82-0.8 1.23-1.917 1.23-3.35v0c0-1.367-0.44-2.4-1.32-3.1-0.887-0.7-2.313-1.05-4.28-1.05v0zM89.25 38.9h-7v-27.35l-1-5.05 1-3h12c2.433 0 4.627 0.377 6.58 1.13 1.947 0.747 3.493 2.01 4.64 3.79 1.153 1.787 1.73 4.247 1.73 7.38v0c0 2.967-0.557 5.333-1.67 7.1-1.12 1.767-2.663 3.083-4.63 3.95v0l1.45 1.3 4.45 5.2 2.85 2.55v3h-9.25l-7-10.65h-4.15v2.6l0.5 5zM88.75 10l0.5 11.9h4.9c2.2 0 3.7-0.577 4.5-1.73 0.8-1.147 1.2-2.603 1.2-4.37v0c0-1.867-0.423-3.3-1.27-4.3-0.853-1-2.397-1.5-4.63-1.5v0zM117.95 38.9h-7.3l2.9-9.45v-4.85l3.2-1.5 6.5-19.55h9.85l8.05 22.4 3.85 7.1v5.85h-6.85l-3-9h-14.55zM127.55 10.15l-4.15 13.55h9.5l-4.3-13.55zM156.5 38.9h-7v-27.35l-1-5.05 1-3h12c2.433 0 4.623 0.377 6.57 1.13 1.953 0.747 3.503 2.01 4.65 3.79 1.153 1.787 1.73 4.247 1.73 7.38v0c0 2.967-0.557 5.333-1.67 7.1-1.12 1.767-2.663 3.083-4.63 3.95v0l1.45 1.3 4.45 5.2 2.85 2.55v3h-9.25l-7-10.65h-4.15v2.6l0.5 5zM156 10l0.5 11.9h4.9c2.2 0 3.7-0.577 4.5-1.73 0.8-1.147 1.2-2.603 1.2-4.37v0c0-1.867-0.427-3.3-1.28-4.3-0.847-1-2.387-1.5-4.62-1.5v0zM194.5 38.9h-7.05v-15l-11.35-17.4v-3h8.4l6 12.8h1l5.95-12.8h8.5v3l-11.75 17.7 0.3 5.05z" fill="#802c6e" fill-rule="nonzero" stroke="none" stroke-width="1" stroke-linecap="butt" stroke-linejoin="miter" stroke-miterlimit="10" stroke-dasharray="" stroke-dashoffset="0" font-family="none" font-weight="none" font-size="none" text-anchor="none" style="mix-blend-mode: normal" data-fill-palette-color="primary" opacity="1"></path></g></svg></g></svg></g></svg></g></svg></g><g transform="matrix(1,0,0,1,0,0.37905218033998267)"><svg viewBox="0 0 169.9542440432203 151.6208721359941" height="151.6208721359941" width="169.9542440432203"><g><svg xmlns="http://www.w3.org/2000/svg" xmlnsXlink="http://www.w3.org/1999/xlink" version="1.1" x="0" y="0" viewBox="8.386999130249023 13.005000114440918 84.19200134277344 75.1100082397461" enable-background="new 0 0 100 100" xml:space="preserve" height="151.6208721359941" width="169.9542440432203" class="icon-icon-0" data-fill-palette-color="accent" id="icon-0"><g fill="#802c6e" data-fill-palette-color="accent"><path d="M49.569 22.967c-9.975-5.691-20.677-9.125-31.045-9.962v58.351c10.367 0.814 21.05 4.154 31.045 9.699V22.967z" fill="#802c6e" data-fill-palette-color="accent"></path><path d="M82.444 13.005c-10.368 0.838-21.071 4.271-31.045 9.962v58.087c9.993-5.545 20.679-8.885 31.045-9.699V13.005z" fill="#802c6e" data-fill-palette-color="accent"></path><path d="M49.229 84.073c0.814 0.278 1.671 0.29 2.485 0.012 11.657-5.043 23.865-7.313 35.798-6.79V19.524c-1.074-0.048-2.155-0.059-3.24-0.055v53.594l-0.852 0.056c-10.672 0.697-21.732 4.177-32.021 10.048-0.594 0.203-1.237 0.203-1.83 0-10.29-5.871-21.349-9.351-32.021-10.048l-0.854-0.056V19.469c-1.084-0.004-2.166 0.006-3.239 0.055v57.771C25.387 76.771 37.569 79.03 49.229 84.073z" fill="#802c6e" data-fill-palette-color="accent"></path><path d="M92.579 26.009c-1.07-0.149-2.157-0.228-3.237-0.335v53.55l-0.968-0.056c-12.195-0.699-25.06 1.777-36.975 7.065l-0.916 0.381-0.915-0.381c-11.917-5.288-24.781-7.765-36.976-7.065l-0.967 0.056v-53.55c-1.081 0.108-2.168 0.187-3.238 0.335v58.707c0.594 0.307 1.044 0.748 1.044 0.748 12.951-1.75 26.393-1.536 39.18 2.651 0.588-0.058 1.212-0.095 1.873-0.095 0.661 0 1.285 0.037 1.872 0.095 12.785-4.188 26.229-4.401 39.179-2.651 0 0 0.474-0.462 1.044-0.748V26.009z" fill="#802c6e" data-fill-palette-color="accent"></path></g></svg></g></svg></g></svg></g><defs></defs></svg><rect width="395.52" height="99.64817256779133" fill="none" stroke="none" visibility="hidden"></rect></g></svg></g></svg>